# xmcd
#
# Track frame offsets: 
#        150
#        46405
#        55762
#        75602
#        92590
#        103302
#        116537
#        127880
#        141772
#
# Disc length: 2238 seconds
#
# Revision: 2
# Processed by: cddbd v1.5.2PL0 Copyright (c) Steve Scherf et al.
# Submitted via: ExactAudioCopy v0.95b4
#
DISCID=7108bc09
DTITLE=B.B. King - Lucille
DYEAR=1968
DGENRE=Blues
TTITLE0=Lucille
TTITLE1=You Move Me So
TTITLE2=Country Girl
TTITLE3=No Money, No Luck Blues
TTITLE4=I Need Your Love
TTITLE5=Rainin' All The Time
TTITLE6=I'm With You
TTITLE7=Stop Putting The Hurt On Me
TTITLE8=Watch Yourself
EXTD=
EXTT0=
EXTT1=
EXTT2=
EXTT3=
EXTT4=
EXTT5=
EXTT6=
EXTT7=
EXTT8=
PLAYORDER=
